<svg width="212" height="189" viewBox="0 0 212 189" fill="none" xmlns="http://www.w3.org/2000/svg">
<path d="M40.781 1.81445L122.508 59.8115L104.998 23.1942L40.781 1.81445Z" fill="#E2761B" stroke="#E2761B" stroke-width="0.5" stroke-linecap="round" stroke-linejoin="round"/>
<path d="M171.218 1.81445L88.767 60.4746L105.996 23.1942L171.218 1.81445Z" fill="#E4761B" stroke="#E4761B" stroke-width="0.5" stroke-linecap="round" stroke-linejoin="round"/>
<path d="M146.232 132.926L124.727 166.881L168.265 178.094L179.838 133.589L146.232 132.926Z" fill="#E4761B" stroke="#E4761B" stroke-width="0.5" stroke-linecap="round" stroke-linejoin="round"/>
<path d="M32.162 133.589L43.735 178.094L87.273 166.881L65.768 132.926L32.162 133.589Z" fill="#E4761B" stroke="#E4761B" stroke-width="0.5" stroke-linecap="round" stroke-linejoin="round"/>
<path d="M84.553 80.7891L68.935 103.251L111.81 105.246L110.479 58.479L84.553 80.7891Z" fill="#E4761B" stroke="#E4761B" stroke-width="0.5" stroke-linecap="round" stroke-linejoin="round"/>
<path d="M127.447 80.7891L101.188 58.1474L100.19 105.246L143.065 103.251L127.447 80.7891Z" fill="#E4761B" stroke="#E4761B" stroke-width="0.5" stroke-linecap="round" stroke-linejoin="round"/>
<path d="M87.273 166.881L115.135 153.368L91.25 134.252L87.273 166.881Z" fill="#E4761B" stroke="#E4761B" stroke-width="0.5" stroke-linecap="round" stroke-linejoin="round"/>
<path d="M96.865 153.368L124.727 166.881L120.75 134.252L96.865 153.368Z" fill="#E4761B" stroke="#E4761B" stroke-width="0.5" stroke-linecap="round" stroke-linejoin="round"/>
<path d="M124.727 166.881L96.865 153.368L99.199 172.484L98.868 177.1L124.727 166.881Z" fill="#D7C1B3" stroke="#D7C1B3" stroke-width="0.5" stroke-linecap="round" stroke-linejoin="round"/>
<path d="M87.273 166.881L113.132 177.1L112.801 172.484L115.135 153.368L87.273 166.881Z" fill="#D7C1B3" stroke="#D7C1B3" stroke-width="0.5" stroke-linecap="round" stroke-linejoin="round"/>
<path d="M113.465 125.388L90.246 118.433L106.861 111.145L113.465 125.388Z" fill="#233447" stroke="#233447" stroke-width="0.5" stroke-linecap="round" stroke-linejoin="round"/>
<path d="M98.535 125.388L105.139 111.145L121.754 118.433L98.535 125.388Z" fill="#233447" stroke="#233447" stroke-width="0.5" stroke-linecap="round" stroke-linejoin="round"/>
<path d="M87.273 166.881L91.583 132.926L65.768 133.589L87.273 166.881Z" fill="#CD6116" stroke="#CD6116" stroke-width="0.5" stroke-linecap="round" stroke-linejoin="round"/>
<path d="M120.417 132.926L124.727 166.881L146.232 133.589L120.417 132.926Z" fill="#CD6116" stroke="#CD6116" stroke-width="0.5" stroke-linecap="round" stroke-linejoin="round"/>
<path d="M143.065 103.251L100.19 105.246L98.535 125.388L105.139 111.145L121.754 118.433L143.065 103.251Z" fill="#CD6116" stroke="#CD6116" stroke-width="0.5" stroke-linecap="round" stroke-linejoin="round"/>
<path d="M90.246 118.433L106.861 111.145L113.465 125.388L111.81 105.246L68.935 103.251L90.246 118.433Z" fill="#CD6116" stroke="#CD6116" stroke-width="0.5" stroke-linecap="round" stroke-linejoin="round"/>
<path d="M68.935 103.251L91.25 134.252L90.246 118.433L68.935 103.251Z" fill="#E4751F" stroke="#E4751F" stroke-width="0.5" stroke-linecap="round" stroke-linejoin="round"/>
<path d="M121.754 118.433L120.75 134.252L143.065 103.251L121.754 118.433Z" fill="#E4751F" stroke="#E4751F" stroke-width="0.5" stroke-linecap="round" stroke-linejoin="round"/>
<path d="M111.81 105.246L113.465 125.388L115.468 151.704L115.967 117.44L111.81 105.246Z" fill="#E4751F" stroke="#E4751F" stroke-width="0.5" stroke-linecap="round" stroke-linejoin="round"/>
<path d="M100.19 105.246L96.033 117.44L96.532 151.704L98.535 125.388L100.19 105.246Z" fill="#E4751F" stroke="#E4751F" stroke-width="0.5" stroke-linecap="round" stroke-linejoin="round"/>
<path d="M98.535 125.388L96.532 151.704L99.199 153.368L120.75 134.252L121.754 118.433L98.535 125.388Z" fill="#F6851B" stroke="#F6851B" stroke-width="0.5" stroke-linecap="round" stroke-linejoin="round"/>
<path d="M90.246 118.433L91.25 134.252L112.801 153.368L115.468 151.704L113.465 125.388L90.246 118.433Z" fill="#F6851B" stroke="#F6851B" stroke-width="0.5" stroke-linecap="round" stroke-linejoin="round"/>
<path d="M98.868 177.1L99.199 172.484L112.468 172.484L112.801 177.1L98.868 177.1Z" fill="#C0AD9E" stroke="#C0AD9E" stroke-width="0.5" stroke-linecap="round" stroke-linejoin="round"/>
<path d="M99.199 172.484L112.468 172.484L115.135 153.368L96.865 153.368L99.199 172.484Z" fill="#161616" stroke="#161616" stroke-width="0.5" stroke-linecap="round" stroke-linejoin="round"/>
<path d="M124.727 166.881L127.061 186L140.33 182.71L143.065 103.251L124.727 166.881Z" fill="#763D16" stroke="#763D16" stroke-width="0.5" stroke-linecap="round" stroke-linejoin="round"/>
<path d="M68.935 103.251L71.67 182.71L84.939 186L87.273 166.881L68.935 103.251Z" fill="#763D16" stroke="#763D16" stroke-width="0.5" stroke-linecap="round" stroke-linejoin="round"/>
<path d="M126.061 104.583L143.065 103.251L146.897 127.637L139.995 126.305L126.061 104.583Z" fill="#F6851B" stroke="#F6851B" stroke-width="0.5" stroke-linecap="round" stroke-linejoin="round"/>
<path d="M85.939 104.583L72.005 126.305L65.103 127.637L68.935 103.251L85.939 104.583Z" fill="#F6851B" stroke="#F6851B" stroke-width="0.5" stroke-linecap="round" stroke-linejoin="round"/>
<path d="M100.19 105.246L96.033 117.44L85.939 104.583L100.19 105.246Z" fill="#E4761B" stroke="#E4761B" stroke-width="0.5" stroke-linecap="round" stroke-linejoin="round"/>
<path d="M111.81 105.246L126.061 104.583L115.967 117.44L111.81 105.246Z" fill="#E4761B" stroke="#E4761B" stroke-width="0.5" stroke-linecap="round" stroke-linejoin="round"/>
<path d="M72.005 126.305L91.583 132.926L85.939 104.583L72.005 126.305Z" fill="#F6851B" stroke="#F6851B" stroke-width="0.5" stroke-linecap="round" stroke-linejoin="round"/>
<path d="M139.995 126.305L126.061 104.583L120.417 132.926L139.995 126.305Z" fill="#F6851B" stroke="#F6851B" stroke-width="0.5" stroke-linecap="round" stroke-linejoin="round"/>
<path d="M85.939 104.583L91.583 132.926L96.033 117.44L85.939 104.583Z" fill="#E4761B" stroke="#E4761B" stroke-width="0.5" stroke-linecap="round" stroke-linejoin="round"/>
<path d="M126.061 104.583L115.967 117.44L120.417 132.926L126.061 104.583Z" fill="#E4761B" stroke="#E4761B" stroke-width="0.5" stroke-linecap="round" stroke-linejoin="round"/>
<path d="M105.996 23.1942L104.998 59.8115L110.479 58.479L105.996 23.1942Z" fill="#763D16" stroke="#763D16" stroke-width="0.5" stroke-linecap="round" stroke-linejoin="round"/>
<path d="M101.188 58.1474L106.998 59.8115L105.996 23.1942L101.188 58.1474Z" fill="#763D16" stroke="#763D16" stroke-width="0.5" stroke-linecap="round" stroke-linejoin="round"/>
<path d="M84.553 80.7891L100.19 105.246L111.81 105.246L127.447 80.7891L84.553 80.7891Z" fill="#F6851B" stroke="#F6851B" stroke-width="0.5" stroke-linecap="round" stroke-linejoin="round"/>
</svg>